Coordinates
version=1
nRows=29
nColumns=24
inDegrees=yes

Units are S.I. units (second, meters, Newtons, ...)
Angles are in degrees.

endheader
time	pelvis_tilt	pelvis_list	pelvis_rotation	pelvis_tx	pelvis_ty	pelvis_tz	hip_flexion_r	hip_adduction_r	hip_rotation_r	knee_angle_r	ankle_angle_r	subtalar_angle_r	mtp_angle_r	hip_flexion_l	hip_adduction_l	hip_rotation_l	knee_angle_l	ankle_angle_l	subtalar_angle_l	mtp_angle_l	lumbar_extension	lumbar_bending	lumbar_rotation
      0.75816667	      2.40264208	     -3.47249961	      7.13739170	     -0.50830475	      0.91405952	      0.32068708	      8.85949095	     11.10530664	     -1.71218761	    -20.03426083	      8.81780393	     -4.11604797	      2.86921411	     15.56025092	     -9.06291030	     -4.11411310	    -71.67746701	      1.47519517	     -6.48403036	      0.52752244	     -7.68914615	      6.02159539	     -0.93430868
      0.76233333	      2.43520183	     -3.27502972	      6.90486153	     -0.50295876	      0.91532463	      0.32107123	      8.13134500	     10.96611045	     -1.48500620	    -19.48846805	      8.87638853	     -3.92655753	      2.89334136	     16.02556906	     -8.79198724	     -4.37275717	    -71.09397180	      1.83315855	     -6.83328356	      0.48775838	     -7.74402971	      5.78033216	     -0.60086535
      0.76650000	      2.44933588	     -3.07598767	      6.64441918	     -0.49765909	      0.91651821	      0.32147958	      7.43756127	     10.81935214	     -1.22028188	    -18.96513537	      8.89280753	     -3.73384218	      2.91550038	     16.49077569	     -8.51549331	     -4.64662132	    -70.45554238	      2.24440273	     -7.12590251	      0.45635229	     -7.80909517	      5.55391926	     -0.37135512
      0.77066667	      2.45736204	     -2.89278435	      6.37366926	     -0.49233844	      0.91765020	      0.32192367	      6.75103521	     10.68190993	     -0.98924460	    -18.43234541	      8.88952262	     -3.53369932	      2.93241838	     16.94892435	     -8.27847224	     -4.95554008	    -69.76686216	      2.65566684	     -7.37296250	      0.43500919	     -7.82854515	      5.29786218	     -0.18674970
      0.77483333	      2.52743883	     -2.68347617	      6.08906413	     -0.48703343	      0.91887311	      0.32234113	      5.98499085	     10.51720736	     -0.71536019	    -17.88407784	      8.92775752	     -3.32938166	      2.96279243	     17.29846232	     -8.00243682	     -5.25630139	    -68.97850422	      2.98862993	     -7.59635565	      0.39688979	     -7.96301603	      5.08336658	      0.14407152
      0.77900000	      2.58063386	     -2.49583128	      5.79820939	     -0.48173386	      0.91999857	      0.32279477	      5.24264423	     10.36782725	     -0.46239633	    -17.33134052	      8.95141027	     -3.11770295	      2.99922398	     17.66126630	     -7.76465313	     -5.57283015	    -68.15384211	      3.33384257	     -7.75437261	      0.35377908	     -8.05302443	      4.85755769	      0.46145289
      0.78316667	      2.62311653	     -2.31174528	      5.48796689	     -0.47644607	      0.92105277	      0.32326786	      4.52131783	     10.21412419	     -0.20023728	    -16.79261311	      8.95602471	     -2.90590284	      3.03410300	     18.01648348	     -7.53755007	     -5.90938114	    -67.27569147	      3.68059881	     -7.87077097	      0.31418977	     -8.13123511	      4.62964118	      0.73267512
      0.78733333	      2.69973951	     -2.14327215	      5.18979856	     -0.47115496	      0.92209424	      0.32373454	      3.74967082	     10.07517554	      0.05063211	    -16.21788358	      9.00089462	     -2.68818569	      3.08832004	     18.32553495	     -7.33356075	     -6.23524787	    -66.34984514	      3.98665741	     -7.94791503	      0.25369710	     -8.24816468	      4.40382761	      1.10141753
      0.79150000	      2.74464414	     -1.96386159	      4.84500556	     -0.46590134	      0.92304109	      0.32422773	      3.04328485	      9.91051222	      0.32287070	    -15.70365260	      8.98422932	     -2.46863957	      3.12922627	     18.63726606	     -7.11912583	     -6.60067203	    -65.35925899	      4.31717046	     -7.98864943	      0.20911613	     -8.33320463	      4.19357004	      1.34507006
      0.79566667	      2.81213171	     -1.79961863	      4.51051930	     -0.46064693	      0.92394949	      0.32471370	      2.30410409	      9.75797520	      0.58337798	    -15.16420841	      8.99750131	     -2.24380098	      3.17458752	     18.91652400	     -6.92723701	     -6.95624241	    -64.32584247	      4.61413474	     -7.99237233	      0.16159615	     -8.43686139	      3.98742241	      1.63895268
      0.79983333	      2.87658355	     -1.64655860	      4.16394365	     -0.45541628	      0.92478463	      0.32521496	      1.57731784	      9.60941501	      0.84978304	    -14.63355789	      9.00870824	     -2.01595245	      3.22009398	     19.18482540	     -6.75181434	     -7.31789968	    -63.24646350	      4.89523718	     -7.96160712	      0.11460598	     -8.53965810	      3.79043330	      1.93307465
      0.80400000	      2.95114634	     -1.50417421	      3.81451546	     -0.45019375	      0.92556431	      0.32571191	      0.84263851	      9.46567497	      1.11272670	    -14.10389278	      9.03365035	     -1.79394167	      3.27183076	     19.42812455	     -6.59191095	     -7.68051376	    -62.12145465	      5.15497426	     -7.89727508	      0.06185971	     -8.65016545	      3.61041716	      2.25692761
      0.80816667	      3.03339554	     -1.38906529	      3.48047556	     -0.44497710	      0.92626736	      0.32619788	      0.09068696	      9.34665985	      1.37131111	    -13.54429257	      9.07837198	     -1.57516248	      3.35084988	     19.66223736	     -6.46152720	     -8.01979134	    -60.97064359	      5.39754679	     -7.80821017	     -0.01981160	     -8.76563388	      3.45154763	      2.66126780
      0.81233333	      3.09458477	     -1.26846680	      3.11745463	     -0.43977903	      0.92687668	      0.32669108	     -0.61209415	      9.20862675	      1.63553231	    -13.03829419	      9.10667273	     -1.35470164	      3.42319888	     19.89415646	     -6.32799213	     -8.38393239	    -59.76535130	      5.61838771	     -7.69548395	     -0.09393583	     -8.85596521	      3.29327413	      2.96407457
      0.81650000	      3.16161734	     -1.16223308	      2.75427708	     -0.43459693	      0.92741934	      0.32718002	     -1.31553922	      9.07899037	      1.89749575	    -12.53626493	      9.13692226	     -1.12747131	      3.49920460	     20.10783248	     -6.21062440	     -8.74168534	    -58.52094061	      5.81701418	     -7.57251733	     -0.17163067	     -8.95669196	      3.15395877	      3.28401439
      0.82066667	      3.19506187	     -1.05788793	      2.36650949	     -0.42945949	      0.92784533	      0.32767819	     -1.95212046	      8.93887561	      2.16679494	    -12.08797692	      9.14574687	     -0.89600574	      3.54911030	     20.34048662	     -6.09829596	     -9.11635884	    -57.22948738	      5.98354382	     -7.43439799	     -0.22144964	     -9.02566939	      3.01558783	      3.50985053
      0.82483333	      3.27478979	     -0.99191157	      2.02339997	     -0.42428150	      0.92824008	      0.32812936	     -2.67427633	      8.83977655	      2.41470148	    -11.56431664	      9.22026065	     -0.66901658	      3.63506214	     20.52591160	     -6.02188288	     -9.44002755	    -55.92641661	      6.14099410	     -7.28013010	     -0.30752283	     -9.13478633	      2.91979589	      3.91364262
      0.82900000	      3.31392428	     -0.93231620	      1.64653325	     -0.41913629	      0.92850856	      0.32860671	     -3.32087046	      8.73497606	      2.67665698	    -11.09694048	      9.23415988	     -0.44363864	      3.76960473	     20.73493946	     -5.96128108	     -9.79469585	    -54.58155735	      6.27753887	     -7.12007711	     -0.44609433	     -9.19922085	      2.83392859	      4.29964989
      0.83316667	      3.34298161	     -0.86372105	      1.27302741	     -0.41401337	      0.92869951	      0.32906000	     -3.93674966	      8.61300744	      2.93481525	    -10.67184863	      9.31286273	     -0.22659912	      3.82484736	     20.93752699	     -5.88425391	    -10.14057329	    -53.18597321	      6.33861347	     -6.96836020	     -0.50070197	     -9.25961542	      2.73344139	      4.48203348
      0.83733333	      3.39857009	     -0.83325304	      0.92899307	     -0.40886227	      0.92883429	      0.32947330	     -4.60353001	      8.52798593	      3.17295235	    -10.19682589	      9.40536870	      0.01026096	      3.90135357	     21.11156796	     -5.84293777	    -10.44753145	    -51.78325546	      6.40904310	     -6.81710981	     -0.57550735	     -9.34129401	      2.68002328	      4.82570910
      0.84150000	      3.42374345	     -0.80829320	      0.56927049	     -0.40373192	      0.92886010	      0.32989716	     -5.21573232	      8.44053181	      3.42347004	     -9.76204259	      9.48030590	      0.24247468	      3.98696678	     21.30100207	     -5.81002359	    -10.76302657	    -50.34354774	      6.44574604	     -6.67067680	     -0.65872017	     -9.39349342	      2.63130251	      5.15268377
      0.84566667	      3.41719709	     -0.78892653	      0.20274742	     -0.39861788	      0.92877441	      0.33030406	     -5.76589046	      8.35052217	      3.66415452	     -9.38054166	      9.54890233	      0.46303536	      4.03878360	     21.50993998	     -5.78446879	    -11.08781988	    -48.86836215	      6.43384664	     -6.53174220	     -0.70744521	     -9.40515225	      2.58984781	      5.35824634
      0.84983333	      3.43177101	     -0.78528727	     -0.14089840	     -0.39349420	      0.92864061	      0.33067745	     -6.35182388	      8.27367851	      3.89505809	     -8.97182624	      9.64982529	      0.69381831	      4.09484903	     21.68800047	     -5.76882515	    -11.38554177	    -47.37276974	      6.41149624	     -6.40847666	     -0.75799313	     -9.44683809	      2.56946581	      5.63662339
      0.85400000	      3.43172492	     -0.79669902	     -0.47795809	     -0.38836527	      0.92841380	      0.33103059	     -6.91190841	      8.20781861	      4.12188217	     -8.58443278	      9.76181209	      0.92338135	      4.15303163	     21.87181299	     -5.76643292	    -11.66974447	    -45.85578209	      6.37042523	     -6.28792776	     -0.80794784	     -9.46846086	      2.56800328	      5.92465465
      0.85816667	      3.41690692	     -0.81905776	     -0.80557933	     -0.38323371	      0.92809670	      0.33135941	     -7.44801150	      8.14987271	      4.34166995	     -8.21305789	      9.88553908	      1.15198814	      4.21119932	     22.06177591	     -5.77145296	    -11.94192793	    -44.31981260	      6.30961172	     -6.17962390	     -0.85565506	     -9.47183303	      2.57530448	      6.20159050
      0.86233333	      3.39713150	     -0.84958905	     -1.12373719	     -0.37809179	      0.92770761	      0.33166319	     -7.97183651	      8.09552271	      4.55008646	     -7.85857577	     10.02198190	      1.38043091	      4.27186528	     22.24536364	     -5.78141423	    -12.20394266	    -42.76241507	      6.23366071	     -6.08097572	     -0.90265546	     -9.47615157	      2.59583883	      6.48095200
      0.86650000	      3.36916308	     -0.88848701	     -1.43095497	     -0.37295326	      0.92724110	      0.33194540	     -8.47608839	      8.04845882	      4.75617672	     -7.52626149	     10.17159078	      1.60833961	      4.33397166	     22.42511832	     -5.79458969	    -12.45097657	    -41.18220923	      6.14611501	     -5.98795441	     -0.94764108	     -9.46484249	      2.62839373	      6.75090746
      0.87066667	      3.32722054	     -0.93560803	     -1.72908584	     -0.36779977	      0.92669308	      0.33219685	     -8.95615007	      8.00609477	      4.95184059	     -7.21596681	     10.33383098	      1.83512728	      4.39717753	     22.61045768	     -5.81268640	    -12.68927309	    -39.59076436	      6.04948879	     -5.90201951	     -0.99045163	     -9.44336430	      2.67064569	      7.01437931
      0.87483333	      3.27726013	     -0.98758041	     -2.01438707	     -0.36263314	      0.92607516	      0.33242561	     -9.42239969	      7.96812489	      5.14468845	     -6.91923960	     10.50801696	      2.06297752	      4.45889693	     22.79165572	     -5.82988456	    -12.91391312	    -37.98185663	      5.94653136	     -5.81657826	     -1.02929827	     -9.40777984	      2.71630907	      7.25971510
